<?xml version="1.0" encoding="UTF-8" standalone="no"?>
<!DOCTYPE svg PUBLIC "-//W3C//DTD SVG 1.1//EN"
 "http://www.w3.org/Graphics/SVG/1.1/DTD/svg11.dtd">
<!-- Generated by graphviz version 2.46.1 (20210222.2046)
 -->
<!-- Title: snakemake_dag Pages: 1 -->
<svg width="422pt" height="265pt"
 viewBox="0.00 0.00 422.00 265.00" xmlns="http://www.w3.org/2000/svg" xmlns:xlink="http://www.w3.org/1999/xlink">
<g id="graph0" class="graph" transform="scale(1 1) rotate(0) translate(4 261)">
<title>snakemake_dag</title>
<polygon fill="white" stroke="transparent" points="-4,4 -4,-261 418,-261 418,4 -4,4"/>
<!-- 0 -->
<g id="node1" class="node">
<title>0</title>
<path fill="none" stroke="#d85656" stroke-width="2" d="M222,-36C222,-36 192,-36 192,-36 186,-36 180,-30 180,-24 180,-24 180,-12 180,-12 180,-6 186,0 192,0 192,0 222,0 222,0 228,0 234,-6 234,-12 234,-12 234,-24 234,-24 234,-30 228,-36 222,-36"/>
<text text-anchor="middle" x="207" y="-15.5" font-family="sans" font-size="10.00">all</text>
</g>
<!-- 1 -->
<g id="node2" class="node">
<title>1</title>
<path fill="none" stroke="#59d856" stroke-width="2" d="M222,-108C222,-108 192,-108 192,-108 186,-108 180,-102 180,-96 180,-96 180,-84 180,-84 180,-78 186,-72 192,-72 192,-72 222,-72 222,-72 228,-72 234,-78 234,-84 234,-84 234,-96 234,-96 234,-102 228,-108 222,-108"/>
<text text-anchor="middle" x="207" y="-87.5" font-family="sans" font-size="10.00">counts</text>
</g>
<!-- 1&#45;&gt;0 -->
<g id="edge1" class="edge">
<title>1&#45;&gt;0</title>
<path fill="none" stroke="grey" stroke-width="2" d="M207,-71.7C207,-63.98 207,-54.71 207,-46.11"/>
<polygon fill="grey" stroke="grey" stroke-width="2" points="210.5,-46.1 207,-36.1 203.5,-46.1 210.5,-46.1"/>
</g>
<!-- 2 -->
<g id="node3" class="node">
<title>2</title>
<path fill="none" stroke="#d6d856" stroke-width="2" d="M114,-180C114,-180 84,-180 84,-180 78,-180 72,-174 72,-168 72,-168 72,-156 72,-156 72,-150 78,-144 84,-144 84,-144 114,-144 114,-144 120,-144 126,-150 126,-156 126,-156 126,-168 126,-168 126,-174 120,-180 114,-180"/>
<text text-anchor="middle" x="99" y="-159.5" font-family="sans" font-size="10.00">map</text>
</g>
<!-- 2&#45;&gt;1 -->
<g id="edge2" class="edge">
<title>2&#45;&gt;1</title>
<path fill="none" stroke="grey" stroke-width="2" d="M125.42,-143.88C139.41,-134.81 156.78,-123.55 171.89,-113.76"/>
<polygon fill="grey" stroke="grey" stroke-width="2" points="173.99,-116.57 180.48,-108.19 170.18,-110.69 173.99,-116.57"/>
</g>
<!-- 3 -->
<g id="node4" class="node">
<title>3</title>
<path fill="none" stroke="#56d8d8" stroke-width="2" d="M114,-257C114,-257 12,-257 12,-257 6,-257 0,-251 0,-245 0,-245 0,-228 0,-228 0,-222 6,-216 12,-216 12,-216 114,-216 114,-216 120,-216 126,-222 126,-228 126,-228 126,-245 126,-245 126,-251 120,-257 114,-257"/>
<text text-anchor="middle" x="63" y="-245" font-family="sans" font-size="10.00">flexbar</text>
<text text-anchor="middle" x="63" y="-234" font-family="sans" font-size="10.00">sample: A1</text>
<text text-anchor="middle" x="63" y="-223" font-family="sans" font-size="10.00">species: Hippocampus</text>
</g>
<!-- 3&#45;&gt;2 -->
<g id="edge5" class="edge">
<title>3&#45;&gt;2</title>
<path fill="none" stroke="grey" stroke-width="2" d="M72.84,-215.69C76.87,-207.56 81.6,-198.03 85.92,-189.33"/>
<polygon fill="grey" stroke="grey" stroke-width="2" points="89.09,-190.83 90.4,-180.32 82.82,-187.72 89.09,-190.83"/>
</g>
<!-- 4 -->
<g id="node5" class="node">
<title>4</title>
<path fill="none" stroke="#d6d856" stroke-width="2" d="M222,-180C222,-180 192,-180 192,-180 186,-180 180,-174 180,-168 180,-168 180,-156 180,-156 180,-150 186,-144 192,-144 192,-144 222,-144 222,-144 228,-144 234,-150 234,-156 234,-156 234,-168 234,-168 234,-174 228,-180 222,-180"/>
<text text-anchor="middle" x="207" y="-159.5" font-family="sans" font-size="10.00">map</text>
</g>
<!-- 4&#45;&gt;1 -->
<g id="edge3" class="edge">
<title>4&#45;&gt;1</title>
<path fill="none" stroke="grey" stroke-width="2" d="M207,-143.7C207,-135.98 207,-126.71 207,-118.11"/>
<polygon fill="grey" stroke="grey" stroke-width="2" points="210.5,-118.1 207,-108.1 203.5,-118.1 210.5,-118.1"/>
</g>
<!-- 5 -->
<g id="node6" class="node">
<title>5</title>
<path fill="none" stroke="#56d8d8" stroke-width="2" d="M258,-257C258,-257 156,-257 156,-257 150,-257 144,-251 144,-245 144,-245 144,-228 144,-228 144,-222 150,-216 156,-216 156,-216 258,-216 258,-216 264,-216 270,-222 270,-228 270,-228 270,-245 270,-245 270,-251 264,-257 258,-257"/>
<text text-anchor="middle" x="207" y="-245" font-family="sans" font-size="10.00">flexbar</text>
<text text-anchor="middle" x="207" y="-234" font-family="sans" font-size="10.00">sample: A2</text>
<text text-anchor="middle" x="207" y="-223" font-family="sans" font-size="10.00">species: Hippocampus</text>
</g>
<!-- 5&#45;&gt;4 -->
<g id="edge6" class="edge">
<title>5&#45;&gt;4</title>
<path fill="none" stroke="grey" stroke-width="2" d="M207,-215.69C207,-207.91 207,-198.84 207,-190.45"/>
<polygon fill="grey" stroke="grey" stroke-width="2" points="210.5,-190.32 207,-180.32 203.5,-190.32 210.5,-190.32"/>
</g>
<!-- 6 -->
<g id="node7" class="node">
<title>6</title>
<path fill="none" stroke="#d6d856" stroke-width="2" d="M330,-180C330,-180 300,-180 300,-180 294,-180 288,-174 288,-168 288,-168 288,-156 288,-156 288,-150 294,-144 300,-144 300,-144 330,-144 330,-144 336,-144 342,-150 342,-156 342,-156 342,-168 342,-168 342,-174 336,-180 330,-180"/>
<text text-anchor="middle" x="315" y="-159.5" font-family="sans" font-size="10.00">map</text>
</g>
<!-- 6&#45;&gt;1 -->
<g id="edge4" class="edge">
<title>6&#45;&gt;1</title>
<path fill="none" stroke="grey" stroke-width="2" d="M288.58,-143.88C274.59,-134.81 257.22,-123.55 242.11,-113.76"/>
<polygon fill="grey" stroke="grey" stroke-width="2" points="243.82,-110.69 233.52,-108.19 240.01,-116.57 243.82,-110.69"/>
</g>
<!-- 7 -->
<g id="node8" class="node">
<title>7</title>
<path fill="none" stroke="#56d8d8" stroke-width="2" d="M402,-257C402,-257 300,-257 300,-257 294,-257 288,-251 288,-245 288,-245 288,-228 288,-228 288,-222 294,-216 300,-216 300,-216 402,-216 402,-216 408,-216 414,-222 414,-228 414,-228 414,-245 414,-245 414,-251 408,-257 402,-257"/>
<text text-anchor="middle" x="351" y="-245" font-family="sans" font-size="10.00">flexbar</text>
<text text-anchor="middle" x="351" y="-234" font-family="sans" font-size="10.00">sample: A3_add</text>
<text text-anchor="middle" x="351" y="-223" font-family="sans" font-size="10.00">species: Hippocampus</text>
</g>
<!-- 7&#45;&gt;6 -->
<g id="edge7" class="edge">
<title>7&#45;&gt;6</title>
<path fill="none" stroke="grey" stroke-width="2" d="M341.16,-215.69C337.13,-207.56 332.4,-198.03 328.08,-189.33"/>
<polygon fill="grey" stroke="grey" stroke-width="2" points="331.18,-187.72 323.6,-180.32 324.91,-190.83 331.18,-187.72"/>
</g>
</g>
</svg>
