<?xml version="1.0" encoding="UTF-8" standalone="no"?>
<!DOCTYPE svg PUBLIC "-//W3C//DTD SVG 1.1//EN"
 "http://www.w3.org/Graphics/SVG/1.1/DTD/svg11.dtd">
<!-- Generated by graphviz version 2.46.1 (20210222.2046)
 -->
<!-- Title: snakemake_dag Pages: 1 -->
<svg width="278pt" height="265pt"
 viewBox="0.00 0.00 278.00 265.00" xmlns="http://www.w3.org/2000/svg" xmlns:xlink="http://www.w3.org/1999/xlink">
<g id="graph0" class="graph" transform="scale(1 1) rotate(0) translate(4 261)">
<title>snakemake_dag</title>
<polygon fill="white" stroke="transparent" points="-4,4 -4,-261 274,-261 274,4 -4,4"/>
<!-- 0 -->
<g id="node1" class="node">
<title>0</title>
<path fill="none" stroke="#d85656" stroke-width="2" stroke-dasharray="5,2" d="M150,-36C150,-36 120,-36 120,-36 114,-36 108,-30 108,-24 108,-24 108,-12 108,-12 108,-6 114,0 120,0 120,0 150,0 150,0 156,0 162,-6 162,-12 162,-12 162,-24 162,-24 162,-30 156,-36 150,-36"/>
<text text-anchor="middle" x="135" y="-15.5" font-family="sans" font-size="10.00">all</text>
</g>
<!-- 1 -->
<g id="node2" class="node">
<title>1</title>
<path fill="none" stroke="#d6d856" stroke-width="2" stroke-dasharray="5,2" d="M150,-108C150,-108 120,-108 120,-108 114,-108 108,-102 108,-96 108,-96 108,-84 108,-84 108,-78 114,-72 120,-72 120,-72 150,-72 150,-72 156,-72 162,-78 162,-84 162,-84 162,-96 162,-96 162,-102 156,-108 150,-108"/>
<text text-anchor="middle" x="135" y="-87.5" font-family="sans" font-size="10.00">counts</text>
</g>
<!-- 1&#45;&gt;0 -->
<g id="edge1" class="edge">
<title>1&#45;&gt;0</title>
<path fill="none" stroke="grey" stroke-width="2" d="M135,-71.7C135,-63.98 135,-54.71 135,-46.11"/>
<polygon fill="grey" stroke="grey" stroke-width="2" points="138.5,-46.1 135,-36.1 131.5,-46.1 138.5,-46.1"/>
</g>
<!-- 2 -->
<g id="node3" class="node">
<title>2</title>
<path fill="none" stroke="#59d856" stroke-width="2" stroke-dasharray="5,2" d="M96,-180C96,-180 66,-180 66,-180 60,-180 54,-174 54,-168 54,-168 54,-156 54,-156 54,-150 60,-144 66,-144 66,-144 96,-144 96,-144 102,-144 108,-150 108,-156 108,-156 108,-168 108,-168 108,-174 102,-180 96,-180"/>
<text text-anchor="middle" x="81" y="-159.5" font-family="sans" font-size="10.00">map</text>
</g>
<!-- 2&#45;&gt;1 -->
<g id="edge2" class="edge">
<title>2&#45;&gt;1</title>
<path fill="none" stroke="grey" stroke-width="2" d="M94.35,-143.7C100.76,-135.39 108.56,-125.28 115.61,-116.14"/>
<polygon fill="grey" stroke="grey" stroke-width="2" points="118.47,-118.16 121.81,-108.1 112.93,-113.88 118.47,-118.16"/>
</g>
<!-- 3 -->
<g id="node4" class="node">
<title>3</title>
<path fill="none" stroke="#56d8d8" stroke-width="2" stroke-dasharray="5,2" d="M114,-257C114,-257 12,-257 12,-257 6,-257 0,-251 0,-245 0,-245 0,-228 0,-228 0,-222 6,-216 12,-216 12,-216 114,-216 114,-216 120,-216 126,-222 126,-228 126,-228 126,-245 126,-245 126,-251 120,-257 114,-257"/>
<text text-anchor="middle" x="63" y="-245" font-family="sans" font-size="10.00">flexbar</text>
<text text-anchor="middle" x="63" y="-234" font-family="sans" font-size="10.00">sample: A1</text>
<text text-anchor="middle" x="63" y="-223" font-family="sans" font-size="10.00">species: Hippocampus</text>
</g>
<!-- 3&#45;&gt;2 -->
<g id="edge4" class="edge">
<title>3&#45;&gt;2</title>
<path fill="none" stroke="grey" stroke-width="2" d="M67.92,-215.69C69.87,-207.82 72.15,-198.64 74.25,-190.17"/>
<polygon fill="grey" stroke="grey" stroke-width="2" points="77.69,-190.87 76.7,-180.32 70.89,-189.18 77.69,-190.87"/>
</g>
<!-- 4 -->
<g id="node5" class="node">
<title>4</title>
<path fill="none" stroke="#59d856" stroke-width="2" stroke-dasharray="5,2" d="M204,-180C204,-180 174,-180 174,-180 168,-180 162,-174 162,-168 162,-168 162,-156 162,-156 162,-150 168,-144 174,-144 174,-144 204,-144 204,-144 210,-144 216,-150 216,-156 216,-156 216,-168 216,-168 216,-174 210,-180 204,-180"/>
<text text-anchor="middle" x="189" y="-159.5" font-family="sans" font-size="10.00">map</text>
</g>
<!-- 4&#45;&gt;1 -->
<g id="edge3" class="edge">
<title>4&#45;&gt;1</title>
<path fill="none" stroke="grey" stroke-width="2" d="M175.65,-143.7C169.24,-135.39 161.44,-125.28 154.39,-116.14"/>
<polygon fill="grey" stroke="grey" stroke-width="2" points="157.07,-113.88 148.19,-108.1 151.53,-118.16 157.07,-113.88"/>
</g>
<!-- 5 -->
<g id="node6" class="node">
<title>5</title>
<path fill="none" stroke="#56d8d8" stroke-width="2" stroke-dasharray="5,2" d="M258,-257C258,-257 156,-257 156,-257 150,-257 144,-251 144,-245 144,-245 144,-228 144,-228 144,-222 150,-216 156,-216 156,-216 258,-216 258,-216 264,-216 270,-222 270,-228 270,-228 270,-245 270,-245 270,-251 264,-257 258,-257"/>
<text text-anchor="middle" x="207" y="-245" font-family="sans" font-size="10.00">flexbar</text>
<text text-anchor="middle" x="207" y="-234" font-family="sans" font-size="10.00">sample: A2</text>
<text text-anchor="middle" x="207" y="-223" font-family="sans" font-size="10.00">species: Hippocampus</text>
</g>
<!-- 5&#45;&gt;4 -->
<g id="edge5" class="edge">
<title>5&#45;&gt;4</title>
<path fill="none" stroke="grey" stroke-width="2" d="M202.08,-215.69C200.13,-207.82 197.85,-198.64 195.75,-190.17"/>
<polygon fill="grey" stroke="grey" stroke-width="2" points="199.11,-189.18 193.3,-180.32 192.31,-190.87 199.11,-189.18"/>
</g>
</g>
</svg>
